<svg width="676" height="273" viewBox="0 0 676 273" fill="none" xmlns="http://www.w3.org/2000/svg">
<path d="M54.6592 130.924L46.2645 142.117C46.1401 141.993 45.7048 141.682 44.9586 141.185C44.2124 140.687 43.2175 140.19 41.9738 139.692C40.8545 139.195 39.4865 138.759 37.8697 138.386C36.3773 137.889 34.8227 137.64 33.2059 137.64C31.0917 137.64 28.9775 138.138 26.8632 139.133C24.8734 140.128 23.8784 141.993 23.8784 144.729C23.8784 147.092 24.6868 149.02 26.3036 150.512C28.0447 152.005 30.159 153.373 32.6463 154.616C35.1336 155.736 37.8075 156.917 40.668 158.161C43.6528 159.404 46.3888 160.959 48.8762 162.824C51.3635 164.566 53.4156 166.804 55.0323 169.54C56.7735 172.152 57.644 175.51 57.644 179.614C57.644 186.579 55.2189 192.362 50.3686 196.963C45.6426 201.44 39.1134 203.679 30.7808 203.679C25.9305 203.679 21.1424 202.871 16.4164 201.254C11.8148 199.513 8.08384 197.025 5.22341 193.792C6.09397 192.921 7.02673 191.802 8.02166 190.434C9.14096 189.066 10.1981 187.76 11.193 186.516C12.3123 185.273 13.1829 184.278 13.8047 183.532C14.5509 182.661 14.9862 182.226 15.1106 182.226C15.1106 182.35 15.5459 182.723 16.4164 183.345C17.4114 183.967 18.655 184.651 20.1474 185.397C21.6398 186.019 23.3188 186.641 25.1843 187.263C27.0498 187.76 28.9153 188.009 30.7808 188.009C33.7656 188.009 36.3151 187.263 38.4294 185.77C40.5436 184.278 41.6007 182.288 41.6007 179.801C41.6007 177.562 40.7301 175.821 38.989 174.577C37.3722 173.209 35.3202 171.965 32.8328 170.846C30.3455 169.727 27.6094 168.608 24.6246 167.488C21.6398 166.245 18.9038 164.69 16.4164 162.824C13.9291 160.959 11.8148 158.658 10.0737 155.922C8.45694 153.062 7.64856 149.393 7.64856 144.916C7.64856 140.687 8.39476 137.143 9.88716 134.282C11.5039 131.422 13.4938 129.121 15.8568 127.38C18.3441 125.514 21.0802 124.209 24.065 123.462C27.0498 122.592 29.9102 122.156 32.6463 122.156C36.2529 122.156 40.1083 122.903 44.2124 124.395C48.3165 125.888 51.7988 128.064 54.6592 130.924ZM81.3068 89.6967H97.1635V124.209H118.057V138.386H97.1635V202H81.3068V138.386H67.3155V124.209H81.3068V89.6967ZM124.199 162.824C124.199 157.228 125.256 151.942 127.37 146.968C129.609 141.993 132.593 137.702 136.325 134.096C140.056 130.365 144.408 127.442 149.383 125.328C154.482 123.089 159.954 121.97 165.799 121.97C171.645 121.97 177.055 123.089 182.029 125.328C187.128 127.442 191.481 130.365 195.088 134.096C198.819 137.702 201.679 141.993 203.669 146.968C205.783 151.942 206.84 157.228 206.84 162.824C206.84 168.421 205.783 173.707 203.669 178.681C201.679 183.656 198.819 188.009 195.088 191.74C191.481 195.471 187.128 198.456 182.029 200.694C177.055 202.808 171.583 203.866 165.613 203.866C159.892 203.866 154.482 202.871 149.383 200.881C144.408 198.891 140.056 196.093 136.325 192.486C132.593 188.879 129.609 184.589 127.37 179.614C125.256 174.515 124.199 168.918 124.199 162.824ZM140.056 163.011C140.056 166.493 140.677 169.789 141.921 172.898C143.289 175.883 145.092 178.557 147.331 180.92C149.694 183.158 152.368 184.962 155.353 186.33C158.462 187.573 161.758 188.195 165.24 188.195C168.722 188.195 172.018 187.573 175.127 186.33C178.236 184.962 180.91 183.158 183.149 180.92C185.512 178.557 187.377 175.883 188.745 172.898C190.113 169.789 190.797 166.493 190.797 163.011C190.797 159.529 190.113 156.233 188.745 153.124C187.377 150.015 185.512 147.341 183.149 145.102C180.91 142.739 178.236 140.936 175.127 139.692C172.018 138.324 168.722 137.64 165.24 137.64C161.758 137.64 158.462 138.324 155.353 139.692C152.368 140.936 149.694 142.739 147.331 145.102C145.092 147.341 143.289 150.015 141.921 153.124C140.677 156.233 140.056 159.529 140.056 163.011ZM276.029 182.785C277.77 184.9 279.387 186.952 280.879 188.941C282.496 190.807 284.113 192.797 285.729 194.911C282.247 197.647 278.33 199.824 273.977 201.44C269.624 203.057 264.898 203.866 259.799 203.866C254.078 203.866 248.668 202.808 243.569 200.694C238.594 198.456 234.242 195.471 230.511 191.74C226.78 188.009 223.795 183.656 221.556 178.681C219.442 173.707 218.385 168.421 218.385 162.824C218.385 157.228 219.442 151.942 221.556 146.968C223.795 141.993 226.78 137.702 230.511 134.096C234.242 130.365 238.594 127.442 243.569 125.328C248.668 123.089 254.078 121.97 259.799 121.97C265.022 121.97 269.81 122.778 274.163 124.395C278.64 126.012 282.682 128.188 286.289 130.924L276.029 143.05C273.915 141.309 271.489 140.003 268.753 139.133C266.017 138.138 263.032 137.64 259.799 137.64C256.068 137.64 252.648 138.324 249.539 139.692C246.429 140.936 243.693 142.677 241.33 144.916C239.092 147.154 237.351 149.828 236.107 152.937C234.863 155.922 234.242 159.218 234.242 162.824C234.242 166.431 234.863 169.789 236.107 172.898C237.351 175.883 239.092 178.557 241.33 180.92C243.693 183.158 246.429 184.962 249.539 186.33C252.648 187.573 256.068 188.195 259.799 188.195C263.032 188.195 266.017 187.76 268.753 186.889C271.489 185.894 273.915 184.526 276.029 182.785ZM450.923 162.824C450.923 159.218 450.363 155.922 449.244 152.937C448.124 149.828 446.508 147.154 444.393 144.916C442.279 142.677 439.73 140.936 436.745 139.692C433.76 138.324 430.402 137.64 426.671 137.64C422.94 137.64 419.458 138.324 416.224 139.692C413.115 140.936 410.441 142.677 408.203 144.916C405.964 147.154 404.161 149.828 402.793 152.937C401.549 155.922 400.927 159.218 400.927 162.824C400.927 166.431 401.549 169.789 402.793 172.898C404.161 176.007 405.964 178.681 408.203 180.92C410.441 183.158 413.115 184.962 416.224 186.33C419.458 187.573 422.94 188.195 426.671 188.195C430.402 188.195 433.76 187.573 436.745 186.33C439.73 184.962 442.279 183.158 444.393 180.92C446.508 178.557 448.124 175.883 449.244 172.898C450.363 169.789 450.923 166.431 450.923 162.824ZM468.272 163.198C468.272 169.043 467.277 174.453 465.287 179.427C463.297 184.402 460.499 188.693 456.892 192.299C453.286 195.906 448.933 198.766 443.834 200.881C438.859 202.871 433.387 203.866 427.417 203.866C424.308 203.866 421.323 203.492 418.463 202.746C415.727 202.124 413.177 201.254 410.814 200.134C408.451 198.891 406.399 197.585 404.658 196.217C402.917 194.725 401.611 193.232 400.741 191.74C400.741 192.362 400.741 193.046 400.741 193.792C400.865 194.414 400.927 195.035 400.927 195.657V239.497H384.884V124.022H400.367C400.367 125.514 400.43 127.38 400.554 129.619C400.803 131.733 400.927 133.66 400.927 135.402C401.922 133.909 403.228 132.417 404.845 130.924C406.586 129.308 408.576 127.877 410.814 126.634C413.177 125.266 415.789 124.146 418.649 123.276C421.51 122.405 424.681 121.97 428.163 121.97C434.133 121.97 439.543 122.965 444.393 124.955C449.368 126.82 453.596 129.556 457.079 133.163C460.685 136.645 463.421 140.936 465.287 146.035C467.277 151.134 468.272 156.855 468.272 163.198ZM501.671 202H485.815V57.0505H501.671V202ZM518.84 162.824C518.84 157.228 519.897 151.942 522.011 146.968C524.25 141.993 527.235 137.702 530.966 134.096C534.697 130.365 539.05 127.442 544.024 125.328C549.123 123.089 554.595 121.97 560.441 121.97C566.286 121.97 571.696 123.089 576.671 125.328C581.77 127.442 586.122 130.365 589.729 134.096C593.46 137.702 596.32 141.993 598.31 146.968C600.425 151.942 601.482 157.228 601.482 162.824C601.482 168.421 600.425 173.707 598.31 178.681C596.32 183.656 593.46 188.009 589.729 191.74C586.122 195.471 581.77 198.456 576.671 200.694C571.696 202.808 566.224 203.866 560.254 203.866C554.533 203.866 549.123 202.871 544.024 200.881C539.05 198.891 534.697 196.093 530.966 192.486C527.235 188.879 524.25 184.589 522.011 179.614C519.897 174.515 518.84 168.918 518.84 162.824ZM534.697 163.011C534.697 166.493 535.319 169.789 536.562 172.898C537.93 175.883 539.734 178.557 541.972 180.92C544.335 183.158 547.009 184.962 549.994 186.33C553.103 187.573 556.399 188.195 559.881 188.195C563.363 188.195 566.659 187.573 569.768 186.33C572.877 184.962 575.551 183.158 577.79 180.92C580.153 178.557 582.018 175.883 583.386 172.898C584.754 169.789 585.438 166.493 585.438 163.011C585.438 159.529 584.754 156.233 583.386 153.124C582.018 150.015 580.153 147.341 577.79 145.102C575.551 142.739 572.877 140.936 569.768 139.692C566.659 138.324 563.363 137.64 559.881 137.64C556.399 137.64 553.103 138.324 549.994 139.692C547.009 140.936 544.335 142.739 541.972 145.102C539.734 147.341 537.93 150.015 536.562 153.124C535.319 156.233 534.697 159.529 534.697 163.011ZM623.876 89.6967H639.733V124.209H660.627V138.386H639.733V202H623.876V138.386H609.885V124.209H623.876V89.6967Z" fill="#003647"/>
<path d="M317.446 202H301.589V57.0505H317.446V202Z" fill="#FF004C"/>
<path d="M309.489 202.026C308.602 202.026 307.734 201.638 306.996 200.911C306.258 200.184 305.683 199.151 305.343 197.942C305.003 196.733 304.913 195.403 305.085 194.119C305.257 192.835 305.684 191.655 306.31 190.728L329.125 156.983C329.48 156.455 329.903 156.036 330.368 155.751C330.834 155.466 331.333 155.32 331.838 155.321H331.84C332.344 155.319 332.843 155.465 333.308 155.749C333.773 156.033 334.196 156.451 334.551 156.977L345.132 172.584C345.345 172.9 345.599 173.151 345.878 173.322C346.158 173.492 346.457 173.579 346.759 173.578C347.062 173.579 347.362 173.492 347.642 173.321C347.921 173.15 348.174 172.899 348.387 172.583L363.326 150.512C363.397 150.407 363.454 150.282 363.492 150.145C363.531 150.007 363.55 149.86 363.55 149.712C363.55 149.563 363.53 149.416 363.492 149.279C363.453 149.142 363.396 149.017 363.325 148.912L358.492 141.795C358.169 141.321 357.95 140.716 357.861 140.058C357.771 139.399 357.817 138.717 357.991 138.096C358.165 137.476 358.46 136.945 358.838 136.572C359.217 136.199 359.662 136 360.117 136H377.284C377.894 136.001 378.479 136.359 378.911 136.995C379.342 137.631 379.584 138.494 379.585 139.394V164.699C379.585 165.37 379.45 166.026 379.198 166.585C378.945 167.143 378.586 167.578 378.165 167.835C377.745 168.092 377.282 168.159 376.836 168.028C376.389 167.897 375.979 167.574 375.658 167.099L370.817 159.959C370.746 159.854 370.661 159.77 370.568 159.714C370.475 159.657 370.375 159.627 370.275 159.627C370.174 159.627 370.074 159.657 369.981 159.714C369.888 159.77 369.804 159.854 369.732 159.959L349.503 189.776C349.148 190.302 348.725 190.72 348.26 191.004C347.795 191.288 347.296 191.434 346.792 191.431C346.289 191.433 345.789 191.288 345.324 191.004C344.859 190.719 344.436 190.301 344.081 189.775L333.494 174.16C333.056 173.543 332.474 173.199 331.868 173.199C331.262 173.199 330.679 173.543 330.241 174.16L312.664 200.085C312.248 200.703 311.753 201.192 311.208 201.525C310.663 201.858 310.079 202.029 309.489 202.026Z" fill="#FF004D"/>
</svg>
