<svg width="800" height="200" viewBox="0 0 800 400" fill="none" xmlns="http://www.w3.org/2000/svg">
<rect width="800" height="200" />
<path d="M116.659 193.924L108.264 205.117C108.14 204.993 107.705 204.682 106.959 204.185C106.212 203.687 105.217 203.19 103.974 202.692C102.855 202.195 101.486 201.759 99.8697 201.386C98.3773 200.889 96.8227 200.64 95.2059 200.64C93.0917 200.64 90.9775 201.138 88.8632 202.133C86.8734 203.128 85.8784 204.993 85.8784 207.729C85.8784 210.092 86.6868 212.02 88.3036 213.512C90.0447 215.005 92.159 216.373 94.6463 217.616C97.1336 218.736 99.8075 219.917 102.668 221.161C105.653 222.404 108.389 223.959 110.876 225.824C113.363 227.566 115.416 229.804 117.032 232.54C118.773 235.152 119.644 238.51 119.644 242.614C119.644 249.579 117.219 255.362 112.369 259.963C107.643 264.44 101.113 266.679 92.7808 266.679C87.9305 266.679 83.1424 265.871 78.4164 264.254C73.8148 262.513 70.0838 260.025 67.2234 256.792C68.094 255.921 69.0267 254.802 70.0217 253.434C71.141 252.066 72.1981 250.76 73.193 249.516C74.3123 248.273 75.1829 247.278 75.8047 246.532C76.5509 245.661 76.9862 245.226 77.1106 245.226C77.1106 245.35 77.5459 245.723 78.4164 246.345C79.4114 246.967 80.655 247.651 82.1474 248.397C83.6398 249.019 85.3188 249.641 87.1843 250.263C89.0498 250.76 90.9153 251.009 92.7808 251.009C95.7656 251.009 98.3151 250.263 100.429 248.77C102.544 247.278 103.601 245.288 103.601 242.801C103.601 240.562 102.73 238.821 100.989 237.577C99.3722 236.209 97.3202 234.965 94.8328 233.846C92.3455 232.727 89.6094 231.608 86.6246 230.488C83.6398 229.245 80.9038 227.69 78.4164 225.824C75.9291 223.959 73.8148 221.658 72.0737 218.922C70.4569 216.062 69.6486 212.393 69.6486 207.916C69.6486 203.687 70.3948 200.143 71.8872 197.282C73.5039 194.422 75.4938 192.121 77.8568 190.38C80.3441 188.514 83.0802 187.209 86.065 186.462C89.0498 185.592 91.9102 185.156 94.6463 185.156C98.2529 185.156 102.108 185.903 106.212 187.395C110.317 188.888 113.799 191.064 116.659 193.924ZM143.307 152.697H159.164V187.209H180.057V201.386H159.164V265H143.307V201.386H129.315V187.209H143.307V152.697ZM186.199 225.824C186.199 220.228 187.256 214.942 189.37 209.968C191.609 204.993 194.593 200.702 198.325 197.096C202.056 193.365 206.408 190.442 211.383 188.328C216.482 186.089 221.954 184.97 227.799 184.97C233.645 184.97 239.055 186.089 244.029 188.328C249.128 190.442 253.481 193.365 257.088 197.096C260.819 200.702 263.679 204.993 265.669 209.968C267.783 214.942 268.84 220.228 268.84 225.824C268.84 231.421 267.783 236.707 265.669 241.681C263.679 246.656 260.819 251.009 257.088 254.74C253.481 258.471 249.128 261.456 244.029 263.694C239.055 265.808 233.583 266.866 227.613 266.866C221.892 266.866 216.482 265.871 211.383 263.881C206.408 261.891 202.056 259.093 198.325 255.486C194.593 251.879 191.609 247.589 189.37 242.614C187.256 237.515 186.199 231.918 186.199 225.824ZM202.056 226.011C202.056 229.493 202.677 232.789 203.921 235.898C205.289 238.883 207.092 241.557 209.331 243.92C211.694 246.158 214.368 247.962 217.353 249.33C220.462 250.573 223.758 251.195 227.24 251.195C230.722 251.195 234.018 250.573 237.127 249.33C240.236 247.962 242.91 246.158 245.149 243.92C247.512 241.557 249.377 238.883 250.745 235.898C252.113 232.789 252.797 229.493 252.797 226.011C252.797 222.529 252.113 219.233 250.745 216.124C249.377 213.015 247.512 210.341 245.149 208.102C242.91 205.739 240.236 203.936 237.127 202.692C234.018 201.324 230.722 200.64 227.24 200.64C223.758 200.64 220.462 201.324 217.353 202.692C214.368 203.936 211.694 205.739 209.331 208.102C207.092 210.341 205.289 213.015 203.921 216.124C202.677 219.233 202.056 222.529 202.056 226.011ZM338.029 245.785C339.77 247.9 341.387 249.952 342.879 251.941C344.496 253.807 346.113 255.797 347.729 257.911C344.247 260.647 340.33 262.824 335.977 264.44C331.624 266.057 326.898 266.866 321.799 266.866C316.078 266.866 310.668 265.808 305.569 263.694C300.594 261.456 296.242 258.471 292.511 254.74C288.78 251.009 285.795 246.656 283.556 241.681C281.442 236.707 280.385 231.421 280.385 225.824C280.385 220.228 281.442 214.942 283.556 209.968C285.795 204.993 288.78 200.702 292.511 197.096C296.242 193.365 300.594 190.442 305.569 188.328C310.668 186.089 316.078 184.97 321.799 184.97C327.022 184.97 331.81 185.778 336.163 187.395C340.64 189.012 344.682 191.188 348.289 193.924L338.029 206.05C335.915 204.309 333.489 203.003 330.753 202.133C328.017 201.138 325.032 200.64 321.799 200.64C318.068 200.64 314.648 201.324 311.539 202.692C308.429 203.936 305.693 205.677 303.33 207.916C301.092 210.154 299.351 212.828 298.107 215.937C296.863 218.922 296.242 222.218 296.242 225.824C296.242 229.431 296.863 232.789 298.107 235.898C299.351 238.883 301.092 241.557 303.33 243.92C305.693 246.158 308.429 247.962 311.539 249.33C314.648 250.573 318.068 251.195 321.799 251.195C325.032 251.195 328.017 250.76 330.753 249.889C333.489 248.894 335.915 247.526 338.029 245.785ZM512.923 225.824C512.923 222.218 512.363 218.922 511.244 215.937C510.124 212.828 508.508 210.154 506.393 207.916C504.279 205.677 501.73 203.936 498.745 202.692C495.76 201.324 492.402 200.64 488.671 200.64C484.94 200.64 481.458 201.324 478.224 202.692C475.115 203.936 472.441 205.677 470.203 207.916C467.964 210.154 466.161 212.828 464.793 215.937C463.549 218.922 462.927 222.218 462.927 225.824C462.927 229.431 463.549 232.789 464.793 235.898C466.161 239.007 467.964 241.681 470.203 243.92C472.441 246.158 475.115 247.962 478.224 249.33C481.458 250.573 484.94 251.195 488.671 251.195C492.402 251.195 495.76 250.573 498.745 249.33C501.73 247.962 504.279 246.158 506.393 243.92C508.508 241.557 510.124 238.883 511.244 235.898C512.363 232.789 512.923 229.431 512.923 225.824ZM530.272 226.198C530.272 232.043 529.277 237.453 527.287 242.427C525.297 247.402 522.499 251.693 518.892 255.299C515.286 258.906 510.933 261.766 505.834 263.881C500.859 265.871 495.387 266.866 489.417 266.866C486.308 266.866 483.323 266.492 480.463 265.746C477.727 265.124 475.177 264.254 472.814 263.134C470.451 261.891 468.399 260.585 466.658 259.217C464.917 257.725 463.611 256.232 462.741 254.74C462.741 255.362 462.741 256.046 462.741 256.792C462.865 257.414 462.927 258.035 462.927 258.657V302.497H446.884V187.022H462.367C462.367 188.514 462.43 190.38 462.554 192.619C462.803 194.733 462.927 196.66 462.927 198.402C463.922 196.909 465.228 195.417 466.845 193.924C468.586 192.308 470.576 190.877 472.814 189.634C475.177 188.266 477.789 187.146 480.649 186.276C483.51 185.405 486.681 184.97 490.163 184.97C496.133 184.97 501.543 185.965 506.393 187.955C511.368 189.82 515.596 192.556 519.079 196.163C522.685 199.645 525.421 203.936 527.287 209.035C529.277 214.134 530.272 219.855 530.272 226.198ZM563.671 265H547.815V120.05H563.671V265ZM580.84 225.824C580.84 220.228 581.897 214.942 584.011 209.968C586.25 204.993 589.235 200.702 592.966 197.096C596.697 193.365 601.05 190.442 606.024 188.328C611.123 186.089 616.595 184.97 622.441 184.97C628.286 184.97 633.696 186.089 638.671 188.328C643.77 190.442 648.122 193.365 651.729 197.096C655.46 200.702 658.32 204.993 660.31 209.968C662.425 214.942 663.482 220.228 663.482 225.824C663.482 231.421 662.425 236.707 660.31 241.681C658.32 246.656 655.46 251.009 651.729 254.74C648.122 258.471 643.77 261.456 638.671 263.694C633.696 265.808 628.224 266.866 622.254 266.866C616.533 266.866 611.123 265.871 606.024 263.881C601.05 261.891 596.697 259.093 592.966 255.486C589.235 251.879 586.25 247.589 584.011 242.614C581.897 237.515 580.84 231.918 580.84 225.824ZM596.697 226.011C596.697 229.493 597.319 232.789 598.562 235.898C599.93 238.883 601.734 241.557 603.972 243.92C606.335 246.158 609.009 247.962 611.994 249.33C615.103 250.573 618.399 251.195 621.881 251.195C625.363 251.195 628.659 250.573 631.768 249.33C634.877 247.962 637.551 246.158 639.79 243.92C642.153 241.557 644.018 238.883 645.386 235.898C646.754 232.789 647.438 229.493 647.438 226.011C647.438 222.529 646.754 219.233 645.386 216.124C644.018 213.015 642.153 210.341 639.79 208.102C637.551 205.739 634.877 203.936 631.768 202.692C628.659 201.324 625.363 200.64 621.881 200.64C618.399 200.64 615.103 201.324 611.994 202.692C609.009 203.936 606.335 205.739 603.972 208.102C601.734 210.341 599.93 213.015 598.562 216.124C597.319 219.233 596.697 222.529 596.697 226.011ZM685.876 152.697H701.733V187.209H722.627V201.386H701.733V265H685.876V201.386H671.885V187.209H685.876V152.697Z" fill="#003647"/>
<path d="M379.446 265H363.589V120.05H379.446V265Z" fill="#FF004C"/>
<path d="M371.489 265.026C370.602 265.026 369.734 264.638 368.996 263.911C368.258 263.184 367.683 262.151 367.343 260.942C367.003 259.733 366.913 258.403 367.085 257.119C367.257 255.835 367.684 254.655 368.31 253.728L391.125 219.983C391.48 219.455 391.903 219.036 392.368 218.751C392.834 218.466 393.333 218.32 393.838 218.321H393.84C394.344 218.319 394.843 218.465 395.308 218.749C395.773 219.033 396.196 219.451 396.551 219.977L407.132 235.584C407.345 235.9 407.599 236.151 407.878 236.322C408.158 236.492 408.457 236.579 408.759 236.578C409.062 236.579 409.362 236.492 409.642 236.321C409.921 236.15 410.174 235.899 410.387 235.583L425.326 213.512C425.397 213.407 425.454 213.282 425.492 213.145C425.531 213.007 425.55 212.86 425.55 212.712C425.55 212.563 425.53 212.416 425.492 212.279C425.453 212.142 425.396 212.017 425.325 211.912L420.492 204.795C420.169 204.321 419.95 203.716 419.861 203.058C419.771 202.399 419.817 201.717 419.991 201.096C420.165 200.476 420.46 199.945 420.838 199.572C421.217 199.199 421.662 199 422.117 199H439.284C439.894 199.001 440.479 199.359 440.911 199.995C441.342 200.631 441.584 201.494 441.585 202.394V227.699C441.585 228.37 441.45 229.026 441.198 229.585C440.945 230.143 440.586 230.578 440.165 230.835C439.745 231.092 439.282 231.159 438.836 231.028C438.389 230.897 437.979 230.574 437.658 230.099L432.817 222.959C432.746 222.854 432.661 222.77 432.568 222.714C432.475 222.657 432.375 222.627 432.275 222.627C432.174 222.627 432.074 222.657 431.981 222.714C431.888 222.77 431.804 222.854 431.732 222.959L411.503 252.776C411.148 253.302 410.725 253.72 410.26 254.004C409.795 254.288 409.296 254.434 408.792 254.431C408.289 254.433 407.789 254.288 407.324 254.004C406.859 253.719 406.436 253.301 406.081 252.775L395.494 237.16C395.056 236.543 394.474 236.199 393.868 236.199C393.262 236.199 392.679 236.543 392.241 237.16L374.664 263.085C374.248 263.703 373.753 264.192 373.208 264.525C372.663 264.858 372.079 265.029 371.489 265.026Z" fill="#FF004D"/>
</svg>
