<svg width="90" height="290" viewBox="0 0 90 290" fill="none" xmlns="http://www.w3.org/2000/svg">
<path d="M27.2363 210H11.3796V65.0505H27.2363V210Z" fill="#FF004C"/>
<path d="M19.4891 210.026C18.6017 210.026 17.7343 209.638 16.9963 208.911C16.2584 208.184 15.6831 207.151 15.3429 205.942C15.0028 204.733 14.9132 203.403 15.0853 202.119C15.2575 200.835 15.6837 199.655 16.3103 198.728L39.1248 164.983C39.4798 164.455 39.9025 164.036 40.3682 163.751C40.8339 163.466 41.3333 163.32 41.8375 163.321H41.8401C42.3438 163.319 42.8427 163.465 43.3081 163.749C43.7735 164.033 44.196 164.451 44.5512 164.977L55.1323 180.584C55.3454 180.9 55.599 181.151 55.8783 181.322C56.1576 181.492 56.4571 181.579 56.7594 181.578C57.0617 181.579 57.3623 181.492 57.6416 181.321C57.9208 181.15 58.1743 180.899 58.3872 180.583L73.326 158.512C73.3972 158.407 73.4537 158.282 73.4922 158.145C73.5306 158.007 73.5504 157.86 73.5503 157.712C73.5502 157.563 73.5302 157.416 73.4916 157.279C73.4529 157.142 73.3962 157.017 73.3249 156.912L68.4915 149.795C68.1693 149.321 67.9497 148.716 67.8606 148.058C67.7714 147.399 67.8166 146.717 67.9906 146.096C68.1646 145.476 68.4596 144.945 68.8381 144.572C69.2165 144.199 69.6615 144 70.1168 144H87.2844C87.8944 144.001 88.4792 144.359 88.9105 144.995C89.3418 145.631 89.5845 146.494 89.5852 147.394V172.699C89.5853 173.37 89.4504 174.026 89.1977 174.585C88.9449 175.143 88.5857 175.578 88.1652 175.835C87.7448 176.092 87.2821 176.159 86.8357 176.028C86.3894 175.897 85.9794 175.574 85.6577 175.099L80.8169 167.959C80.7457 167.854 80.6611 167.77 80.5681 167.714C80.475 167.657 80.3754 167.627 80.2747 167.627C80.174 167.627 80.0742 167.657 79.9812 167.714C79.8882 167.77 79.8036 167.854 79.7324 167.959L59.5032 197.776C59.148 198.302 58.7255 198.72 58.2602 199.004C57.7948 199.288 57.296 199.434 56.7923 199.431C56.2886 199.433 55.7893 199.288 55.3239 199.004C54.8585 198.719 54.436 198.301 54.0808 197.775L43.4945 182.16C43.0561 181.543 42.4736 181.199 41.8677 181.199C41.2618 181.199 40.6791 181.543 40.2407 182.16L22.6635 208.085C22.2478 208.703 21.753 209.192 21.2081 209.525C20.6632 209.858 20.079 210.029 19.4891 210.026Z" fill="#FF004D"/>
</svg>
